<?xml version="1.0" encoding="iso-8859-1"?>
<!-- Generator: Adobe Illustrator 19.0.0, SVG Export Plug-In . SVG Version: 6.00 Build 0)  -->
<svg version="1.1" id="Layer_1" xmlns="http://www.w3.org/2000/svg" xmlns:xlink="http://www.w3.org/1999/xlink" x="0px" y="0px"
	 viewBox="0 0 512 512" style="enable-background:new 0 0 512 512;" xml:space="preserve">
<path d="M35.368,337.688V58.408c0-4.824,4.136-8.968,8.968-8.968h423.4c4.824,0,8.968,4.136,8.968,8.968v279.28H35.368z"/>
<g>
	<path style="fill:#CFDCE5;" d="M476.696,337.688v35.856c0,4.824-4.136,8.968-8.968,8.968h-423.4c-4.824,0-8.968-4.136-8.968-8.968
		v-35.856H476.696z"/>
	<rect x="161.6" y="445.952" style="fill:#CFDCE5;" width="188.944" height="8.968"/>
</g>
<polygon style="fill:#AAC1CE;" points="318.784,445.952 193.28,445.952 202.248,382.512 309.816,382.512 "/>
<rect x="53.296" y="67.376" style="fill:#FFFFFF;" width="405.472" height="252.384"/>
<g>
	<polygon style="fill:#8BA0AE;" points="309.816,382.512 202.248,382.512 197.24,417.92 311.432,393.912 	"/>
	<rect y="454.56" style="fill:#8BA0AE;" width="512" height="8"/>
</g>
<path d="M412.816,454.92H310.232c-10.896,0-19.816-8.92-19.816-19.816V218.736c0-10.896,8.912-19.816,19.816-19.816h102.592
	c10.896,0,19.816,8.92,19.816,19.816v216.368C432.632,446,423.712,454.92,412.816,454.92z"/>
<rect x="299.792" y="219.12" style="fill:#FFFFFF;" width="123.456" height="201.84"/>
<g>
	<path style="fill:#CFDCE5;" d="M380.04,211.128h-25.264c-1.136,0-2.064-0.928-2.064-2.064l0,0c0-1.136,0.928-2.064,2.064-2.064
		h25.264c1.136,0,2.064,0.928,2.064,2.064l0,0C382.104,210.2,381.176,211.128,380.04,211.128z"/>
	<circle style="fill:#CFDCE5;" cx="343.008" cy="209.064" r="2.064"/>
	<path style="fill:#CFDCE5;" d="M361.52,447.704c-5.384,0-9.76-4.384-9.76-9.76s4.384-9.76,9.76-9.76s9.76,4.384,9.76,9.76
		S366.904,447.704,361.52,447.704z M361.52,430.176c-4.28,0-7.76,3.48-7.76,7.76s3.48,7.76,7.76,7.76s7.76-3.48,7.76-7.76
		S365.8,430.176,361.52,430.176z"/>
</g>
<g>
	<rect x="346.56" y="387.736" style="fill:#AAC1CE;" width="29.928" height="4"/>
	<rect x="322.56" y="401.2" style="fill:#AAC1CE;" width="78" height="4"/>
	<rect x="346.56" y="356.56" style="fill:#AAC1CE;" width="29.928" height="4"/>
	<rect x="322.56" y="370.08" style="fill:#AAC1CE;" width="78" height="4"/>
</g>
<g>
	<rect x="328.24" y="122.008" style="fill:#8BA0AE;" width="66.528" height="4"/>
	<rect x="290.4" y="144" style="fill:#8BA0AE;" width="142.216" height="4"/>
	<rect x="290.4" y="168.024" style="fill:#8BA0AE;" width="142.216" height="4"/>
</g>
<g>
	<rect x="172.04" y="102.16" style="fill:#25B6D2;" width="3.784" height="3.784"/>
	<path style="fill:#25B6D2;" d="M175.824,273.312h-3.784v-7.6h3.784V273.312z M175.824,258.08h-3.784v-7.6h3.784V258.08z
		 M175.824,242.872h-3.784v-7.6h3.784V242.872z M175.824,227.672h-3.784v-7.6h3.784V227.672z M175.824,212.432h-3.784v-7.6h3.784
		V212.432z M175.824,197.232h-3.784v-7.6h3.784V197.232z M175.824,182.024h-3.784v-7.6h3.784V182.024z M175.824,166.792h-3.784v-7.6
		h3.784V166.792z M175.824,151.584h-3.784v-7.6h3.784V151.584z M175.824,136.384h-3.784v-7.6h3.784V136.384z M175.824,121.144
		h-3.784v-7.6h3.784V121.144z"/>
	<rect x="172.04" y="280.88" style="fill:#25B6D2;" width="3.784" height="3.784"/>
	<rect x="252.896" y="143.12" style="fill:#25B6D2;" width="3.784" height="3.784"/>
	<path style="fill:#25B6D2;" d="M256.72,225.2h-3.784v-7.824h3.784V225.2z M256.72,209.552h-3.784v-7.824h3.784V209.552z
		 M256.72,193.896h-3.784v-7.824h3.784V193.896z M256.72,178.24h-3.784v-7.824h3.784V178.24z M256.72,162.56h-3.784v-7.824h3.784
		V162.56z"/>
	<rect x="252.896" y="233.064" style="fill:#25B6D2;" width="3.784" height="3.784"/>
	<path style="fill:#25B6D2;" d="M173.928,196.208l-3.496-2.12l1.96-3.24l1.536,0.928l2.984-1.8l1.96,3.24L173.928,196.208z
		 M163.92,190.176l-6.48-3.912l1.96-3.24l6.48,3.912L163.92,190.176z M185.376,189.28l-1.96-3.24l6.48-3.912l1.96,3.24
		L185.376,189.28z M150.96,182.312l-6.48-3.912l1.96-3.24l6.48,3.912L150.96,182.312z M198.368,181.448l-1.992-3.24l6.48-3.912
		l1.96,3.24L198.368,181.448z M137.968,174.488l-6.48-3.912l1.96-3.24l6.48,3.912L137.968,174.488z M211.328,173.624l-1.96-3.24
		l6.48-3.912l1.96,3.24L211.328,173.624z M124.984,166.664l-6.48-3.912l1.96-3.24l6.48,3.912L124.984,166.664z M224.32,165.768
		l-1.96-3.24l6.48-3.912l1.96,3.24L224.32,165.768z M111.992,158.808l-6.48-3.912l1.96-3.24l6.48,3.912L111.992,158.808z
		 M237.312,157.936l-1.96-3.24l6.48-3.912l1.96,3.24L237.312,157.936z M99.032,150.976l-6.48-3.912l0.8-1.344l-1.184-2.216
		l6.704-3.56l1.768,3.336l-3.752,1.992l4.072,2.472L99.032,150.976z M250.272,150.112l-1.96-3.24l5.52-3.336l0.288,0.48l0.576-1.056
		l3.976,2.12L250.272,150.112z M246.192,142.736l-6.704-3.56l1.8-3.336l6.704,3.56L246.192,142.736z M107.336,139.72l-1.768-3.336
		l6.704-3.56l1.768,3.336L107.336,139.72z M232.824,135.616l-6.704-3.56l1.768-3.336l6.704,3.56L232.824,135.616z M120.712,132.6
		l-1.768-3.336l6.704-3.56l1.768,3.336L120.712,132.6z M219.416,128.528l-6.704-3.56l1.768-3.336l6.704,3.56L219.416,128.528z
		 M134.12,125.512l-1.768-3.336l6.704-3.56l1.768,3.336L134.12,125.512z M206.008,121.4l-6.704-3.56l1.768-3.336l6.704,3.56
		L206.008,121.4z M147.528,118.392l-1.768-3.336l6.704-3.56l1.768,3.336L147.528,118.392z M192.632,114.28l-6.704-3.56l1.768-3.336
		l6.704,3.56L192.632,114.28z M160.904,111.264l-1.768-3.336l6.704-3.56l1.768,3.336L160.904,111.264z M179.224,107.192
		l-6.192-3.272l0.576-1.056l-1.056-2.024l1.376-0.768l7.088,3.752L179.224,107.192z"/>
	<path style="fill:#25B6D2;" d="M173.928,287.944l-3.496-2.12l1.96-3.24l1.536,0.928l2.984-1.8l1.96,3.24L173.928,287.944z
		 M163.92,281.912L157.44,278l1.96-3.24l6.48,3.912L163.92,281.912z M185.376,281.048l-1.96-3.24l6.48-3.912l1.96,3.24
		L185.376,281.048z M150.96,274.088l-6.48-3.912l1.96-3.24l6.48,3.912L150.96,274.088z M198.336,273.184l-1.96-3.24l6.48-3.912
		l1.96,3.24L198.336,273.184z M137.968,266.224l-6.48-3.912l1.96-3.24l6.48,3.912L137.968,266.224z M211.328,265.36l-1.96-3.24
		l6.48-3.912l1.96,3.24L211.328,265.36z M124.984,258.4l-6.48-3.912l1.96-3.24l6.48,3.912L124.984,258.4z M224.32,257.536
		l-1.96-3.24l6.48-3.912l1.96,3.24L224.32,257.536z M111.992,250.576l-6.48-3.912l1.96-3.24l6.48,3.912L111.992,250.576z
		 M237.312,249.704l-1.96-3.24l6.48-3.912l1.96,3.24L237.312,249.704z M99,242.712l-6.48-3.912l0.8-1.344l-1.184-2.216l6.704-3.56
		l1.768,3.336l-3.752,1.992l4.072,2.472L99,242.712z M250.272,241.848l-1.96-3.24l5.52-3.336l0.288,0.48l0.576-1.056l3.976,2.12
		L250.272,241.848z M246.192,234.504l-6.704-3.56l1.8-3.368l6.704,3.56L246.192,234.504z M107.336,231.488l-1.768-3.336l6.704-3.56
		l1.768,3.336L107.336,231.488z M232.824,227.384l-6.704-3.56l1.768-3.336l6.704,3.56L232.824,227.384z M120.712,224.368
		l-1.768-3.336l6.704-3.56l1.768,3.336L120.712,224.368z M219.416,220.264l-6.704-3.56l1.768-3.336l6.704,3.56L219.416,220.264z
		 M134.12,217.248l-1.768-3.336l6.704-3.56l1.768,3.336L134.12,217.248z M206.04,213.176l-6.704-3.56l1.768-3.368l6.704,3.56
		L206.04,213.176z M147.528,210.16l-1.768-3.336l6.704-3.56l1.768,3.336L147.528,210.16z M192.632,206.056l-6.704-3.56l1.768-3.336
		l6.704,3.56L192.632,206.056z M160.904,203.04l-1.768-3.336l6.704-3.56l1.768,3.336L160.904,203.04z M179.224,198.928l-6.192-3.272
		l0.576-1.056l-1.056-2.024l1.376-0.736l7.088,3.752L179.224,198.928z"/>
</g>
<g>
	<circle style="fill:#E04F5F;" cx="254.824" cy="143.28" r="10.328"/>
	<circle style="fill:#E04F5F;" cx="254.824" cy="236.912" r="10.328"/>
</g>
<g>
	<rect x="91.144" y="143.12" style="fill:#25B6D2;" width="3.784" height="3.784"/>
	<path style="fill:#25B6D2;" d="M94.96,225.2h-3.816v-7.824h3.784v7.824H94.96z M94.96,209.552h-3.816v-7.824h3.784v7.824H94.96z
		 M94.96,193.896h-3.816v-7.824h3.784v7.824H94.96z M94.96,178.24h-3.816v-7.824h3.784v7.824H94.96z M94.96,162.56h-3.816v-7.824
		h3.784v7.824H94.96z"/>
	<rect x="91.144" y="233.064" style="fill:#25B6D2;" width="3.784" height="3.784"/>
</g>
<g>
	<circle style="fill:#E04F5F;" cx="93.032" cy="143.28" r="10.328"/>
	<circle style="fill:#E04F5F;" cx="93.032" cy="236.912" r="10.328"/>
	<circle style="fill:#E04F5F;" cx="173.928" cy="193.416" r="10.328"/>
	<circle style="fill:#E04F5F;" cx="173.928" cy="101.096" r="10.328"/>
	<circle style="fill:#E04F5F;" cx="173.928" cy="285.728" r="10.328"/>
</g>
<g>
	<rect x="360.48" y="238.24" style="fill:#25B6D2;" width="2.024" height="2.024"/>
	<path style="fill:#25B6D2;" d="M362.48,329.912h-2.024v-4.072h2.024V329.912z M362.48,321.752h-2.024v-4.072h2.024V321.752z
		 M362.48,313.608h-2.024v-4.072h2.024V313.608z M362.48,305.472h-2.024V301.4h2.024V305.472z M362.48,297.312h-2.024v-4.072h2.024
		V297.312z M362.48,289.176h-2.024v-4.072h2.024V289.176z M362.48,281.032h-2.024v-4.072h2.024V281.032z M362.48,272.872h-2.024
		V268.8h2.024V272.872z M362.48,264.736h-2.024v-4.072h2.024V264.736z M362.48,256.592h-2.024v-4.072h2.024V256.592z
		 M362.48,248.432h-2.024v-4.072h2.024V248.432z"/>
	<rect x="360.48" y="333.984" style="fill:#25B6D2;" width="2.024" height="2.024"/>
	<rect x="403.76" y="260.2" style="fill:#25B6D2;" width="2.024" height="2.024"/>
	<path style="fill:#25B6D2;" d="M405.792,304.152h-2.024v-4.192h2.024V304.152z M405.792,295.768h-2.024v-4.192h2.024V295.768z
		 M405.792,287.384h-2.024v-4.192h2.024V287.384z M405.792,279.008h-2.024v-4.192h2.024V279.008z M405.792,270.608h-2.024v-4.192
		h2.024V270.608z"/>
	<rect x="403.76" y="308.36" style="fill:#25B6D2;" width="2.024" height="2.024"/>
	<path style="fill:#25B6D2;" d="M361.464,288.624l-1.872-1.136l1.048-1.736l0.824,0.496l1.6-0.96l1.048,1.736L361.464,288.624z
		 M356.104,285.392l-3.472-2.096l1.048-1.736l3.472,2.096L356.104,285.392z M367.6,284.912l-1.048-1.736l3.472-2.096l1.048,1.736
		L367.6,284.912z M349.168,281.184l-3.472-2.096l1.048-1.736l3.472,2.096L349.168,281.184z M374.552,280.72l-1.064-1.736
		l3.472-2.096l1.048,1.736L374.552,280.72z M342.216,276.992l-3.472-2.096l1.048-1.736l3.472,2.096L342.216,276.992z
		 M381.488,276.528l-1.048-1.736l3.472-2.096l1.048,1.736L381.488,276.528z M335.256,272.808l-3.472-2.096l1.048-1.736l3.472,2.096
		L335.256,272.808z M388.448,272.328l-1.048-1.736l3.472-2.096l1.048,1.736L388.448,272.328z M328.304,268.6l-3.472-2.096
		l1.048-1.736l3.472,2.096L328.304,268.6z M395.4,268.136l-1.048-1.736l3.472-2.096l1.048,1.736L395.4,268.136z M321.36,264.408
		l-3.472-2.096l0.432-0.72l-0.632-1.184l3.592-1.904l0.944,1.784l-2.008,1.064l2.184,1.32L321.36,264.408z M402.336,263.944
		l-1.048-1.736l2.952-1.784l0.152,0.256l0.312-0.568l2.128,1.136L402.336,263.944z M400.16,259.992l-3.592-1.904l0.96-1.784
		l3.592,1.904L400.16,259.992z M325.808,258.376l-0.944-1.784l3.592-1.904l0.944,1.784L325.808,258.376z M393,256.184l-3.592-1.904
		l0.944-1.784l3.592,1.904L393,256.184z M332.976,254.568l-0.944-1.784l3.592-1.904l0.944,1.784L332.976,254.568z M385.816,252.384
		l-3.592-1.904l0.944-1.784l3.592,1.904L385.816,252.384z M340.152,250.768l-0.944-1.784l3.592-1.904l0.944,1.784L340.152,250.768z
		 M378.64,248.576l-3.592-1.904l0.944-1.784l3.592,1.904L378.64,248.576z M347.328,246.96l-0.944-1.784l3.592-1.904l0.944,1.784
		L347.328,246.96z M371.48,244.76l-3.592-1.904l0.944-1.784l3.592,1.904L371.48,244.76z M354.496,243.144l-0.944-1.784l3.592-1.904
		l0.944,1.784L354.496,243.144z M364.296,240.96l-3.312-1.752l0.312-0.568l-0.568-1.08l0.736-0.416l3.792,2.008L364.296,240.96z"/>
	<path style="fill:#25B6D2;" d="M361.464,337.744l-1.872-1.136l1.048-1.736l0.824,0.496l1.6-0.96l1.048,1.736L361.464,337.744z
		 M356.104,334.512l-3.472-2.096l1.048-1.736l3.472,2.096L356.104,334.512z M367.6,334.048l-1.048-1.736l3.472-2.096l1.048,1.736
		L367.6,334.048z M349.168,330.32l-3.472-2.096l1.048-1.736l3.472,2.096L349.168,330.32z M374.536,329.84l-1.048-1.736l3.472-2.096
		l1.048,1.736L374.536,329.84z M342.216,326.112l-3.472-2.096l1.048-1.736l3.472,2.096L342.216,326.112z M381.488,325.648
		l-1.048-1.736l3.472-2.096l1.048,1.736L381.488,325.648z M335.256,321.92l-3.472-2.096l1.048-1.736l3.472,2.096L335.256,321.92z
		 M388.448,321.464l-1.048-1.736l3.472-2.096l1.048,1.736L388.448,321.464z M328.304,317.736l-3.472-2.096l1.048-1.736l3.472,2.096
		L328.304,317.736z M395.4,317.272l-1.048-1.736l3.472-2.096l1.048,1.736L395.4,317.272z M321.344,313.528l-3.472-2.096l0.432-0.72
		l-0.632-1.184l3.592-1.904l0.944,1.784l-2.008,1.064l2.184,1.32L321.344,313.528z M402.336,313.064l-1.048-1.736l2.952-1.784
		l0.152,0.256l0.312-0.568l2.128,1.136L402.336,313.064z M400.16,309.128l-3.592-1.904l0.96-1.8l3.592,1.904L400.16,309.128z
		 M325.808,307.512l-0.944-1.784l3.592-1.904l0.944,1.784L325.808,307.512z M393,305.32l-3.592-1.904l0.944-1.784l3.592,1.904
		L393,305.32z M332.976,303.704l-0.944-1.784l3.592-1.904l0.944,1.784L332.976,303.704z M385.816,301.504l-3.592-1.904l0.944-1.784
		l3.592,1.904L385.816,301.504z M340.152,299.888l-0.944-1.784l3.592-1.904l0.944,1.784L340.152,299.888z M378.656,297.704
		l-3.592-1.904l0.944-1.8l3.592,1.904L378.656,297.704z M347.328,296.096l-0.944-1.784l3.592-1.904l0.944,1.784L347.328,296.096z
		 M371.48,293.896l-3.592-1.904l0.944-1.784l3.592,1.904L371.48,293.896z M354.496,292.28l-0.944-1.784l3.592-1.904l0.944,1.784
		L354.496,292.28z M364.296,290.08l-3.312-1.752l0.312-0.568l-0.568-1.08l0.736-0.392l3.792,2.008L364.296,290.08z"/>
</g>
<g>
	<circle style="fill:#E04F5F;" cx="404.776" cy="260.304" r="5.528"/>
	<circle style="fill:#E04F5F;" cx="404.776" cy="310.4" r="5.528"/>
</g>
<g>
	<rect x="317.136" y="260.2" style="fill:#25B6D2;" width="2.024" height="2.024"/>
	<path style="fill:#25B6D2;" d="M319.184,304.152h-2.04v-4.192h2.024v4.192H319.184z M319.184,295.768h-2.04v-4.192h2.024v4.192
		H319.184z M319.184,287.384h-2.04v-4.192h2.024v4.192H319.184z M319.184,279.008h-2.04v-4.192h2.024v4.192H319.184z
		 M319.184,270.608h-2.04v-4.192h2.024v4.192H319.184z"/>
	<rect x="317.136" y="308.36" style="fill:#25B6D2;" width="2.024" height="2.024"/>
</g>
<g>
	<circle style="fill:#E04F5F;" cx="318.152" cy="260.304" r="5.528"/>
	<circle style="fill:#E04F5F;" cx="318.152" cy="310.4" r="5.528"/>
	<circle style="fill:#E04F5F;" cx="361.44" cy="287.12" r="5.528"/>
	<circle style="fill:#E04F5F;" cx="361.44" cy="237.704" r="5.528"/>
	<circle style="fill:#E04F5F;" cx="361.44" cy="336.56" r="5.528"/>
</g>
<g>
</g>
<g>
</g>
<g>
</g>
<g>
</g>
<g>
</g>
<g>
</g>
<g>
</g>
<g>
</g>
<g>
</g>
<g>
</g>
<g>
</g>
<g>
</g>
<g>
</g>
<g>
</g>
<g>
</g>
</svg>
